<svg id="Layer_1" data-name="Layer 1" xmlns="http://www.w3.org/2000/svg" viewBox="0 0 435 414"><defs><style>.cls-1{fill:#fff;}</style></defs><title>H</title><polygon class="cls-1" points="0.5 0 0 74 73 72.5 73.61 216.26 145 143 146 0.5 0.5 0"/><polygon class="cls-1" points="434.5 412.26 435 338.26 362 339.76 361.39 196 290 269.26 289 411.76 434.5 412.26"/><polygon class="cls-1" points="74.33 242.67 155 164 287 163 289 0 360 0 359 167 292 236 143 236.68 146 414 74 414 74.33 242.67"/><polygon class="cls-1" points="3 98.09 58 97 57 414 1 414 3 98.09"/><polygon class="cls-1" points="379 2.09 434 1 433 318 377 318 379 2.09"/></svg>